<?xml version="1.0" encoding="UTF-8" standalone="no"?>
<svg
   xmlns:dc="http://purl.org/dc/elements/1.1/"
   xmlns:cc="http://creativecommons.org/ns#"
   xmlns:rdf="http://www.w3.org/1999/02/22-rdf-syntax-ns#"
   xmlns:svg="http://www.w3.org/2000/svg"
   xmlns="http://www.w3.org/2000/svg"
   xmlns:sodipodi="http://sodipodi.sourceforge.net/DTD/sodipodi-0.dtd"
   xmlns:inkscape="http://www.inkscape.org/namespaces/inkscape"
   id="Layer_1"
   data-name="Layer 1"
   viewBox="0 0 64 64"
   version="1.1"
   sodipodi:docname="toy_robot.svg"
   inkscape:version="0.92.5 (2060ec1f9f, 2020-04-08)">
  <metadata
     id="metadata3884">
    <rdf:RDF>
      <cc:Work
         rdf:about="">
        <dc:format>image/svg+xml</dc:format>
        <dc:type
           rdf:resource="http://purl.org/dc/dcmitype/StillImage" />
      </cc:Work>
    </rdf:RDF>
  </metadata>
  <defs
     id="defs3882" />
  <sodipodi:namedview
     pagecolor="#ffffff"
     bordercolor="#666666"
     borderopacity="1"
     objecttolerance="10"
     gridtolerance="10"
     guidetolerance="10"
     inkscape:pageopacity="0"
     inkscape:pageshadow="2"
     inkscape:window-width="1920"
     inkscape:window-height="1043"
     id="namedview3880"
     showgrid="false"
     inkscape:zoom="7.375"
     inkscape:cx="34.815125"
     inkscape:cy="25.138289"
     inkscape:window-x="0"
     inkscape:window-y="0"
     inkscape:window-maximized="1"
     inkscape:current-layer="Layer_1" />
  <title
     id="title3861">robot</title>
  <path
     d="M 38.57645,3.1864407 H 24.724295 A 2.7494673,2.7494673 0 0 0 21.974828,5.935908 v 7.393729 a 2.7494673,2.7494673 0 0 0 2.749467,2.75753 h 3.152615 a 0.54828087,0.54828087 0 0 1 0.548281,0.548281 v 0.177385 a 0.88692494,0.88692494 0 0 0 0.886925,0.886925 h 4.676514 a 0.88692494,0.88692494 0 0 0 0.886924,-0.886925 v -0.177385 a 0.54828087,0.54828087 0 0 1 0.548281,-0.548281 H 38.57645 A 2.7494673,2.7494673 0 0 0 41.325918,13.3377 V 5.935908 A 2.7494673,2.7494673 0 0 0 38.57645,3.1864407 Z m -2.088305,6.450363 A 1.6125908,1.6125908 0 0 1 35.270639,9.0643342 0.69341404,0.69341404 0 0 0 34.738484,8.8305085 h -6.16816 A 0.69341404,0.69341404 0 0 0 28.038169,9.0643342 1.6125908,1.6125908 0 0 1 26.8126,9.6368037 1.6125908,1.6125908 0 1 1 28.046232,7.0002179 0.67728814,0.67728814 0 0 0 28.570324,7.2179177 h 6.152034 a 0.67728814,0.67728814 0 0 0 0.524092,-0.2176998 1.6125908,1.6125908 0 1 1 1.241695,2.6365858 z"
     id="path3863"
     inkscape:connector-curvature="0"
     style="stroke-width:0.80629539" />
  <path
     d="M 19.555942,6.4116223 A 0.8062954,0.8062954 0 0 0 18.749646,7.2179177 V 12.05569 a 0.8062955,0.8062955 0 0 0 1.612591,0 V 7.2179177 A 0.8062954,0.8062954 0 0 0 19.555942,6.4116223 Z"
     id="path3865"
     inkscape:connector-curvature="0"
     style="stroke-width:0.80629539" />
  <path
     d="M 43.744804,12.861986 A 0.8062954,0.8062954 0 0 0 44.551099,12.05569 V 7.2179177 a 0.8062955,0.8062955 0 1 0 -1.612591,0 V 12.05569 a 0.8062954,0.8062954 0 0 0 0.806296,0.806296 z"
     id="path3867"
     inkscape:connector-curvature="0"
     style="stroke-width:0.80629539" />
  <path
     d="m 21.974828,37.35724 a 1.3061985,1.3061985 0 0 0 1.306199,1.306199 H 40.019719 A 1.3061985,1.3061985 0 0 0 41.325918,37.35724 V 23.650218 A 4.3217433,4.3217433 0 0 0 37.004174,19.312349 H 26.296571 a 4.3217433,4.3217433 0 0 0 -4.321743,4.321743 z m 6.708378,-11.102688 a 2.0157385,2.0157385 0 0 1 2.160871,-0.306392 2.0479903,2.0479903 0 0 0 1.660969,0 2.0157385,2.0157385 0 0 1 2.136683,0.314455 2.096368,2.096368 0 0 1 0.233825,2.725279 l -1.61259,2.306005 a 2.0157385,2.0157385 0 0 1 -3.321937,0 l -1.612591,-2.297942 a 2.096368,2.096368 0 0 1 0.35477,-2.733342 z"
     id="path3869"
     inkscape:connector-curvature="0"
     style="stroke-width:0.80629539" />
  <path
     d="m 21.974828,45.113802 h -0.08063 a 1.5319613,1.5319613 0 0 0 -1.531962,1.531961 v 0.806295 a 0.86273608,0.86273608 0 0 0 0.862736,0.886925 h 7.958136 a 0.86273608,0.86273608 0 0 0 0.854673,-0.862736 v -0.806295 a 1.5319613,1.5319613 0 0 0 -1.531961,-1.55615 h -0.08063 v -3.894407 a 0.94336562,0.94336562 0 0 0 -0.943364,-0.943366 h -4.563632 a 0.94336562,0.94336562 0 0 0 -0.943366,0.943366 z"
     id="path3871"
     inkscape:connector-curvature="0"
     style="stroke-width:0.80629539" />
  <path
     d="M 40.382552,40.276029 H 35.81892 a 0.94336562,0.94336562 0 0 0 -0.943366,0.943366 v 3.894407 h -0.08063 a 1.5319613,1.5319613 0 0 0 -1.531961,1.531961 v 0.806295 a 0.86273608,0.86273608 0 0 0 0.862736,0.886925 h 7.958135 a 0.86273608,0.86273608 0 0 0 0.854673,-0.862736 v -0.806295 a 1.5319613,1.5319613 0 0 0 -1.531961,-1.55615 h -0.08063 V 41.219395 A 0.94336562,0.94336562 0 0 0 40.38255,40.276029 Z"
     id="path3873"
     inkscape:connector-curvature="0"
     style="stroke-width:0.80629539" />
  <path
     d="m 17.137056,25.053172 v 7.845254 A 1.2497579,1.2497579 0 0 1 16.8226,33.7531 a 4.8377724,4.8377724 0 0 0 2.676901,8.062954 0.74985472,0.74985472 0 0 0 0.862736,-0.733729 v -1.612591 a 1.0723729,1.0723729 0 0 0 -0.645036,-0.967554 1.5642131,1.5642131 0 0 1 -0.08063,-2.805908 1.4513317,1.4513317 0 0 0 0.725666,-1.306199 V 23.247071 a 0.69341404,0.69341404 0 0 0 -0.661162,-0.70954 2.5156416,2.5156416 0 0 0 -2.564019,2.515641 z"
     id="path3875"
     inkscape:connector-curvature="0"
     style="stroke-width:0.80629539" />
  <path
     d="m 43.583545,38.469928 a 1.0723729,1.0723729 0 0 0 -0.645037,0.999806 v 1.612591 a 0.74985472,0.74985472 0 0 0 0.862737,0.741792 4.8377724,4.8377724 0 0 0 2.6769,-8.062954 1.2497579,1.2497579 0 0 1 -0.314455,-0.854674 v -7.853317 a 2.5156416,2.5156416 0 0 0 -2.564019,-2.515641 0.69341404,0.69341404 0 0 0 -0.661163,0.70954 v 11.118813 a 1.4513317,1.4513317 0 0 0 0.725666,1.306199 1.5642131,1.5642131 0 0 1 -0.08063,2.805908 z"
     id="path3877"
     inkscape:connector-curvature="0"
     style="stroke-width:0.80629539" />
  <path
     inkscape:connector-curvature="0"
     id="XMLID_225_"
     d="m 39.592153,52.44742 c -0.28017,-0.28016 -0.7345,-0.28021 -1.01471,5e-5 l -6.66761,6.66776 -6.66795,-6.66781 c -0.28017,-0.28016 -0.7345,-0.28021 -1.01471,5e-5 -0.28021,0.28021 -0.28021,0.7345 0,1.01471 l 7.17533,7.17513 c 0.13455,0.13456 0.31704,0.21014 0.50733,0.21014 0.19028,0 0.37282,-0.0756 0.50733,-0.21018 l 7.17494,-7.17514 c 0.28026,-0.28016 0.28026,-0.73449 5e-5,-1.01471 z"
     style="stroke-width:0.04783424" />
</svg>
